<svg width="89" height="45" viewBox="0 0 89 45" fill="none" xmlns="http://www.w3.org/2000/svg">
    <rect width="89" height="45" rx="6" fill="#50C271"/>
    <rect x="11" y="7" width="48" height="13" fill="url(#paint0_linear_19_103)"/>
    <rect y="30" width="89" height="8" fill="url(#paint1_linear_19_103)"/>
    <path d="M73.4441 15.3332H75.3888C75.6982 15.3332 75.995 15.2103 76.2137 14.9915C76.4325 14.7727 76.5555 14.476 76.5555 14.1666C76.5555 13.8572 76.4325 13.5604 76.2137 13.3416C75.995 13.1228 75.6982 12.9999 75.3888 12.9999H74.6108C74.3013 12.9999 74.0046 12.877 73.7858 12.6582C73.567 12.4394 73.4441 12.1427 73.4441 11.8332C73.4441 11.5238 73.567 11.2271 73.7858 11.0083C74.0046 10.7895 74.3013 10.6666 74.6108 10.6666H76.5555M74.9998 16.1109V15.3332M74.9998 10.6666V9.88892" stroke="#343434" stroke-width="0.96" stroke-linecap="round" stroke-linejoin="round"/>
    <path d="M83.4732 12.7256H82.4652C82.0603 8.98026 78.8375 6 74.9965 6C72.7594 6 70.7287 7.01552 69.3452 8.61226C69.0653 8.929 69.1094 9.31855 69.3964 9.52459C69.691 9.73063 70.0364 9.66467 70.2797 9.39235C70.8668 8.71863 71.5918 8.17881 72.4055 7.80937C73.2192 7.43994 74.1028 7.24951 74.9965 7.25095C76.5213 7.2459 77.9951 7.80044 79.1384 8.80947C80.2817 9.8185 81.0151 11.2119 81.1996 12.7256H80.1031C79.5806 12.7256 79.4409 13.0789 79.7276 13.4835L81.3687 15.8309C81.6042 16.1695 81.9575 16.177 82.2004 15.8309L83.8484 13.491C84.143 13.0789 84.0032 12.7256 83.4732 12.7256ZM66.5269 14.2929H67.5349C67.9398 18.0383 71.1626 21.0113 74.9961 21.0113C77.2479 21.0113 79.2789 19.9883 80.6624 18.3991C80.9273 18.0824 80.8904 17.6853 80.6109 17.4792C80.3166 17.2732 79.9708 17.3467 79.7279 17.619C78.5948 18.9362 76.9021 19.7604 74.9965 19.7604C73.4734 19.7656 72.0014 19.2119 70.8594 18.2042C69.7175 17.1964 68.9849 15.8048 68.8005 14.2929H69.897C70.4194 14.2929 70.5592 13.9325 70.2725 13.5354L68.6238 11.1876C68.3887 10.8493 68.0426 10.8418 67.7997 11.1876L66.1513 13.5279C65.8571 13.9328 65.9969 14.2929 66.5269 14.2929Z" fill="white"/>
    <defs>
    <linearGradient id="paint0_linear_19_103" x1="11" y1="13.5" x2="59" y2="13.5" gradientUnits="userSpaceOnUse">
    <stop stop-color="#50C271"/>
    <stop offset="1" stop-color="#D9D9D9"/>
    </linearGradient>
    <linearGradient id="paint1_linear_19_103" x1="0" y1="34" x2="89" y2="34" gradientUnits="userSpaceOnUse">
    <stop stop-color="#50C271"/>
    <stop offset="1" stop-color="#D9D9D9"/>
    </linearGradient>
    </defs>
</svg>