<svg width="60" height="31" viewBox="0 0 60 31" fill="none" xmlns="http://www.w3.org/2000/svg">
  <rect width="60" height="30.3371" rx="6" fill="#FF4C4C"/>
  <rect x="7.41602" y="4.71912" width="32.3596" height="8.76404" fill="url(#paint0_linear_75_983)"/>
  <rect y="20.2247" width="60" height="5.39326" fill="url(#paint1_linear_75_983)"/>
  <path d="M49.5127 10.337H50.8237C51.0323 10.337 51.2324 10.2542 51.3799 10.1066C51.5274 9.95915 51.6102 9.7591 51.6102 9.5505C51.6102 9.3419 51.5274 9.14185 51.3799 8.99435C51.2324 8.84685 51.0323 8.76398 50.8237 8.76398H50.2992C50.0906 8.76398 49.8906 8.68112 49.7431 8.53362C49.5956 8.38612 49.5127 8.18606 49.5127 7.97746C49.5127 7.76887 49.5956 7.56881 49.7431 7.42131C49.8906 7.27381 50.0906 7.19095 50.2992 7.19095H51.6102M50.5615 10.8613V10.337M50.5615 7.19095V6.66669" stroke="#343434" stroke-width="0.96" stroke-linecap="round" stroke-linejoin="round"/>
  <path d="M56.2739 8.57897H55.5943C55.3213 6.05403 53.1486 4.04486 50.5592 4.04486C49.051 4.04486 47.682 4.72948 46.7493 5.80593C46.5606 6.01946 46.5904 6.28208 46.7839 6.42099C46.9824 6.55989 47.2153 6.51543 47.3793 6.33184C47.7752 5.87764 48.2639 5.51372 48.8125 5.26466C49.361 5.01561 49.9567 4.88723 50.5592 4.88819C51.5872 4.88479 52.5807 5.25864 53.3515 5.93889C54.1222 6.61913 54.6167 7.5585 54.7411 8.57897H54.0018C53.6496 8.57897 53.5554 8.81715 53.7487 9.0899L54.8551 10.6724C55.0138 10.9007 55.252 10.9058 55.4158 10.6724L56.5268 9.09496C56.7253 8.81715 56.6311 8.57897 56.2739 8.57897ZM44.8493 9.63561H45.5289C45.8018 12.1605 47.9746 14.1649 50.5589 14.1649C52.077 14.1649 53.4462 13.4752 54.3789 12.4038C54.5575 12.1903 54.5326 11.9226 54.3442 11.7837C54.1458 11.6448 53.9127 11.6943 53.7489 11.8779C52.985 12.7659 51.8439 13.3215 50.5592 13.3215C49.5324 13.325 48.54 12.9517 47.7702 12.2724C47.0003 11.593 46.5064 10.6548 46.3821 9.63561H47.1213C47.4735 9.63561 47.5678 9.39258 47.3745 9.1249L46.263 7.54213C46.1045 7.31407 45.8712 7.30901 45.7074 7.54213L44.5962 9.11984C44.3978 9.3928 44.492 9.63561 44.8493 9.63561Z" fill="white"/>
  <defs>
    <linearGradient id="paint0_linear_75_983" x1="7.41602" y1="9.10114" x2="39.7756" y2="9.10114" gradientUnits="userSpaceOnUse">
      <stop stop-color="#FF7A7A"/>
      <stop offset="1" stop-color="#FFB2B2"/>
    </linearGradient>
    <linearGradient id="paint1_linear_75_983" x1="0" y1="22.9213" x2="60" y2="22.9213" gradientUnits="userSpaceOnUse">
      <stop stop-color="#FF7A7A"/>
      <stop offset="1" stop-color="#FFB2B2"/>
    </linearGradient>
  </defs>
</svg>
