<svg width="15" height="15" viewBox="0 0 15 15" fill="none" xmlns="http://www.w3.org/2000/svg">
<path d="M7.5 1.87489C6.33968 1.87489 5.22688 2.33583 4.40641 3.1563C3.58594 3.97677 3.125 5.08957 3.125 6.24989C3.125 8.03864 4.23875 9.76427 5.46125 11.1011C6.08634 11.7822 6.76839 12.4086 7.5 12.9736C7.60917 12.8899 7.73729 12.7878 7.88437 12.6674C8.47175 12.1851 9.02457 11.6621 9.53875 11.1024C10.7613 9.76427 11.875 8.03927 11.875 6.24989C11.875 5.08957 11.4141 3.97677 10.5936 3.1563C9.77312 2.33583 8.66032 1.87489 7.5 1.87489ZM7.5 14.5086L7.14562 14.2649L7.14375 14.2636L7.14 14.2605L7.1275 14.2518L7.08063 14.2186L6.91187 14.0955C6.05679 13.4529 5.26242 12.7332 4.53875 11.9455C3.26125 10.5468 1.875 8.52239 1.875 6.24927C1.875 4.75742 2.46763 3.32668 3.52252 2.27179C4.57742 1.2169 6.00816 0.624268 7.5 0.624268C8.99184 0.624268 10.4226 1.2169 11.4775 2.27179C12.5324 3.32668 13.125 4.75742 13.125 6.24927C13.125 8.52239 11.7388 10.5474 10.4613 11.9443C9.73778 12.7319 8.94362 13.4516 8.08875 14.0943C8.01753 14.1475 7.94565 14.1998 7.87313 14.2511L7.86 14.2599L7.85625 14.263L7.855 14.2636L7.5 14.5086ZM7.5 4.99989C7.16848 4.99989 6.85054 5.13159 6.61612 5.36601C6.3817 5.60043 6.25 5.91837 6.25 6.24989C6.25 6.58141 6.3817 6.89935 6.61612 7.13378C6.85054 7.3682 7.16848 7.49989 7.5 7.49989C7.83152 7.49989 8.14946 7.3682 8.38388 7.13378C8.6183 6.89935 8.75 6.58141 8.75 6.24989C8.75 5.91837 8.6183 5.60043 8.38388 5.36601C8.14946 5.13159 7.83152 4.99989 7.5 4.99989ZM5 6.24989C5 5.58685 5.26339 4.95097 5.73223 4.48213C6.20107 4.01328 6.83696 3.74989 7.5 3.74989C8.16304 3.74989 8.79893 4.01328 9.26777 4.48213C9.73661 4.95097 10 5.58685 10 6.24989C10 6.91293 9.73661 7.54882 9.26777 8.01766C8.79893 8.4865 8.16304 8.74989 7.5 8.74989C6.83696 8.74989 6.20107 8.4865 5.73223 8.01766C5.26339 7.54882 5 6.91293 5 6.24989Z" fill="#50C271"/>
</svg>
