<svg width="15" height="15" viewBox="0 0 15 15" fill="none" xmlns="http://www.w3.org/2000/svg">
<g clip-path="url(#clip0_240_688)">
<path d="M6.45 0V1.9749C4.1916 2.4045 2.4045 4.1916 1.9749 6.45H0V8.55H1.9749C2.4045 10.8084 4.1916 12.5955 6.45 13.0251V15H8.55V13.0251C10.8084 12.5955 12.5955 10.8084 13.0251 8.55H15V6.45H13.0251C12.5955 4.1916 10.8084 2.4045 8.55 1.9749V0H6.45ZM7.5 3.375C8.04212 3.37352 8.57919 3.4792 9.08032 3.68597C9.58146 3.89275 10.0368 4.19654 10.4201 4.57987C10.8035 4.96321 11.1073 5.41854 11.314 5.91968C11.5208 6.42081 11.6265 6.95788 11.625 7.5C11.6265 8.04212 11.5208 8.57919 11.314 9.08032C11.1073 9.58146 10.8035 10.0368 10.4201 10.4201C10.0368 10.8035 9.58146 11.1073 9.08032 11.314C8.57919 11.5208 8.04212 11.6265 7.5 11.625C6.95788 11.6265 6.42081 11.5208 5.91968 11.314C5.41854 11.1073 4.96321 10.8035 4.57987 10.4201C4.19654 10.0368 3.89275 9.58146 3.68597 9.08032C3.4792 8.57919 3.37352 8.04212 3.375 7.5C3.37352 6.95788 3.4792 6.42081 3.68597 5.91968C3.89275 5.41854 4.19654 4.96321 4.57987 4.57987C4.96321 4.19654 5.41854 3.89275 5.91968 3.68597C6.42081 3.4792 6.95788 3.37352 7.5 3.375Z" fill="#50C271"/>
<path d="M7.5 9.75C8.74264 9.75 9.75 8.74264 9.75 7.5C9.75 6.25736 8.74264 5.25 7.5 5.25C6.25736 5.25 5.25 6.25736 5.25 7.5C5.25 8.74264 6.25736 9.75 7.5 9.75Z" fill="#50C271"/>
</g>
<defs>
<clipPath id="clip0_240_688">
<rect width="15" height="15" fill="white"/>
</clipPath>
</defs>
</svg>
