<svg width="20" height="20" viewBox="0 0 20 20" fill="none" xmlns="http://www.w3.org/2000/svg">
<path d="M20 17.5H2.5V16.25H18.75V7.5H20V17.5Z" fill="#50C271"/>
<path d="M16.25 5V13.75H1.25V5H16.25ZM17.5 3.75H0V15H17.5V3.75Z" fill="#50C271"/>
<path d="M3.75 7.5H2.5V11.25H3.75V12.5H8.75C7.9212 12.5 7.12634 12.1708 6.54029 11.5847C5.95424 10.9987 5.625 10.2038 5.625 9.375C5.625 8.5462 5.95424 7.75134 6.54029 7.16529C7.12634 6.57924 7.9212 6.25 8.75 6.25H3.75V7.5ZM13.75 7.5V6.25H8.75C9.5788 6.25 10.3737 6.57924 10.9597 7.16529C11.5458 7.75134 11.875 8.5462 11.875 9.375C11.875 10.2038 11.5458 10.9987 10.9597 11.5847C10.3737 12.1708 9.5788 12.5 8.75 12.5H13.75V11.25H15V7.5H13.75Z" fill="#50C271"/>
</svg>
